<?xml version="1.0" standalone="no"?>
<!DOCTYPE svg PUBLIC "-//W3C//DTD SVG 20010904//EN"
 "http://www.w3.org/TR/2001/REC-SVG-20010904/DTD/svg10.dtd">
<svg version="1.0" xmlns="http://www.w3.org/2000/svg"
 width="16.000000pt" height="16.000000pt" viewBox="0 0 16.000000 16.000000"
 preserveAspectRatio="xMidYMid meet">

<g transform="translate(0.000000,16.000000) scale(0.100000,-0.100000)"
fill="#000000" stroke="none">
<path d="M30 126 c0 -9 7 -16 16 -16 17 0 14 22 -4 28 -7 2 -12 -3 -12 -12z"/>
<path d="M107 133 c-12 -11 -8 -23 8 -23 8 0 15 7 15 15 0 16 -12 20 -23 8z"/>
<path d="M67 60 c4 -15 0 -20 -15 -20 -12 0 -26 8 -31 18 -9 15 -10 15 -11 1
0 -25 21 -36 70 -35 52 1 70 10 70 34 -1 16 -1 16 -11 0 -5 -10 -19 -18 -31
-18 -15 0 -19 5 -15 20 4 15 0 20 -13 20 -13 0 -17 -5 -13 -20z"/>
</g>
</svg>
